<svg width="85" height="73" viewBox="0 0 85 73" fill="none" xmlns="http://www.w3.org/2000/svg">
<path d="M1 64.0136C7.6137 65.4833 14.4111 65.4833 20.6573 64.381C26.9036 63.2788 32.5987 60.7067 37.1916 57.2162C39.3962 55.379 41.417 53.5419 43.0705 51.1536C44.7239 48.9491 46.1936 46.5607 47.4796 43.9887C49.8679 39.0285 51.5213 33.5171 52.6236 27.6383C53.9096 20.106 61.0744 15.1457 68.4229 16.6154C75.7715 18.0852 80.9155 25.0662 79.4458 32.4148C79.2621 33.8845 78.7109 35.3542 77.9761 36.6402L77.6086 37.1913C73.7506 43.9887 69.1578 50.6025 63.4627 56.1139C60.707 58.8696 57.4001 61.4416 54.0933 63.6461C50.7864 65.8507 47.1122 67.5041 43.2542 68.7901C35.7219 71.3621 28.0059 71.9133 20.8411 70.811C17.1668 70.2599 13.8599 69.3413 10.5531 68.239C7.24624 67.1367 3.93942 65.667 1 64.0136Z" stroke="#C0425E" stroke-width="1.5" stroke-miterlimit="10" stroke-linecap="round" stroke-linejoin="round"/>
<path d="M67.137 9.63446C67.137 9.63446 77.9761 15.3297 83.8549 1C83.8549 1 78.8946 8.71591 81.2829 14.5948" stroke="#91BC74" stroke-width="1.5" stroke-miterlimit="10" stroke-linecap="round" stroke-linejoin="round"/>
</svg>
