<svg width="83" height="77" viewBox="0 0 83 77" fill="none" xmlns="http://www.w3.org/2000/svg">
<path d="M47.3008 52.8322C47.528 53.0734 48.6878 54.285 50.4176 56.0945C49.3155 57.2463 48.0959 58.5178 47.3546 59.295C47.1414 59.5182 46.9082 59.7115 46.6631 59.8789L46.3482 60.0522L45.9337 60.2814C44.3773 60.949 42.526 60.6242 41.2645 59.3049C41.0293 59.0578 39.8695 57.8442 38.1457 56.0447C39.2478 54.8908 40.4654 53.6174 41.2107 52.8402C41.6292 52.4018 42.1134 52.073 42.6316 51.8538C44.186 51.1881 46.0373 51.513 47.3008 52.8322Z" fill="#A94C74"/>
<path d="M64.3706 38.0164C66.3993 35.8981 69.5938 32.5561 73.4778 28.4947L73.4838 28.5007L73.4957 28.4887C77.3797 32.5461 80.5762 35.8881 82.6049 38.0065C80.5762 40.1248 77.3797 43.4668 73.4957 47.5282L73.4897 47.5222L73.4778 47.5342C69.5938 43.4768 66.3993 40.1348 64.3706 38.0164Z" fill="#A94C74"/>
<path d="M52.4985 47.3988C48.8636 43.5985 43.4311 42.8392 39.0648 45.0991C37.9608 45.671 36.9225 46.4303 36.0038 47.3909C35.1589 48.2757 33.9911 49.4933 32.9508 50.5854L32.9468 50.5794L32.9329 50.5953C31.2769 48.8655 29.5012 47.0082 27.7177 45.1429C28.7021 44.1146 29.8061 42.9568 30.7627 41.9584C32.351 40.2964 34.1565 39.019 36.0776 38.0684L36.1732 38.0166C34.2163 37.06 32.3769 35.7627 30.7627 34.0748C29.8061 33.0744 28.7021 31.9185 27.7177 30.8902C29.5012 29.023 31.2769 27.1656 32.9329 25.4379L32.9369 25.4418L32.9508 25.4279C33.9911 26.52 35.1589 27.7396 36.0038 28.6244C39.565 32.345 44.848 33.1481 49.1665 31.0576C50.3701 30.4717 51.5041 29.6726 52.4985 28.6324C54.2522 26.797 62.1179 18.5845 69.2442 11.1413H69.2522C69.4315 10.956 69.6109 10.7667 69.7883 10.5813V21.4642C63.75 27.7754 59.1565 32.5782 57.7336 34.0648C56.1194 35.7527 54.2801 37.0501 52.3251 38.0066C54.2801 38.9632 56.1194 40.2605 57.7336 41.9484C59.1565 43.4351 63.75 48.2398 69.7883 54.5491V64.8819H69.7703V65.4419C62.5104 57.8572 54.296 49.2801 52.4985 47.3988Z" fill="#A94C74"/>
<path d="M41.2097 23.1906C40.4664 22.4154 39.2488 21.142 38.1447 19.9881C39.8705 18.1866 41.0284 16.975 41.2635 16.7278C41.4787 16.5046 41.7099 16.3094 41.955 16.1439L42.3337 15.9347L42.6844 15.7414C44.2388 15.0758 46.0901 15.3986 47.3556 16.7179C48.0969 17.4951 49.3165 18.7685 50.4186 19.9204C48.6868 21.7298 47.529 22.9395 47.2998 23.1826C46.8793 23.621 46.395 23.9499 45.8749 24.1691C44.3205 24.8347 42.4692 24.5098 41.2097 23.1906Z" fill="#A94C74"/>
<path d="M1.4169 36.5859L25.7613 11.1414H25.7693L30.847 5.83453C38.2902 -1.94548 50.3568 -1.94548 57.8 5.83453C58.7585 6.83493 59.8626 7.99276 60.849 9.01907C59.0654 10.8824 57.2898 12.7377 55.6338 14.4714L55.6278 14.4655L55.6159 14.4794C54.5716 13.3893 53.4058 12.1697 52.5589 11.2849L52.4174 11.1414H52.4353C47.8657 6.52006 40.58 6.55992 36.0642 11.2749C33.4875 13.9712 17.7661 30.436 10.5401 38.0067C17.7661 45.5775 33.4875 62.0442 36.0642 64.7385L36.2057 64.882H36.1878C40.7593 69.5034 48.0471 69.4635 52.5589 64.7465C53.4058 63.8617 54.5716 62.6441 55.6159 61.552L55.6198 61.556L55.6338 61.544L58.8243 64.882H58.8004C59.474 65.5855 60.1495 66.291 60.8311 67.0044C59.8446 68.0307 58.7406 69.1865 57.7821 70.1869C50.3388 77.9689 38.2723 77.9689 30.8291 70.1869L1.4169 39.4476L0 38.0087L1.4169 36.5859Z" fill="#A94C74"/>
<path d="M22.5022 39.6914C21.9542 39.1175 21.4201 38.5595 20.9 38.0174C21.4201 37.4714 21.9542 36.9134 22.5022 36.3415L22.5062 36.3454L22.5202 36.3315C23.0243 36.8616 23.5644 37.4236 24.1204 38.0075C23.5644 38.5894 23.0243 39.1553 22.5202 39.6814L22.5162 39.6775L22.5022 39.6914Z" fill="#A94C74"/>
</svg>
