<svg width="83" height="77" viewBox="0 0 83 77" fill="none" xmlns="http://www.w3.org/2000/svg">
<path d="M47.3008 52.833C47.528 53.0741 48.6878 54.2857 50.4176 56.0952C49.3155 57.2471 48.0959 58.5185 47.3546 59.2957C47.1414 59.5189 46.9082 59.7122 46.6631 59.8796L46.3482 60.053L45.9337 60.2822C44.3773 60.9498 42.526 60.6249 41.2645 59.3057C41.0293 59.0586 39.8695 57.8449 38.1457 56.0454C39.2478 54.8916 40.4654 53.6181 41.2107 52.8409C41.6292 52.4025 42.1134 52.0737 42.6316 51.8545C44.186 51.1889 46.0373 51.5137 47.3008 52.833Z" fill="#C19D5D"/>
<path d="M64.3706 38.0167C66.3993 35.8983 69.5938 32.5563 73.4778 28.4949L73.4838 28.5009L73.4957 28.489C77.3797 32.5464 80.5762 35.8883 82.6049 38.0067C80.5762 40.1251 77.3797 43.4671 73.4957 47.5284L73.4897 47.5225L73.4778 47.5344C69.5938 43.477 66.3993 40.1351 64.3706 38.0167Z" fill="#C19D5D"/>
<path d="M52.4985 47.3993C48.8636 43.599 43.4311 42.8397 39.0648 45.0996C37.9608 45.6715 36.9225 46.4308 36.0038 47.3913C35.1589 48.2762 33.9911 49.4938 32.9508 50.5858L32.9468 50.5799L32.9329 50.5958C31.2769 48.866 29.5012 47.0087 27.7177 45.1434C28.7021 44.1151 29.8061 42.9573 30.7627 41.9589C32.351 40.2969 34.1565 39.0195 36.0776 38.0689L36.1732 38.0171C34.2163 37.0605 32.3769 35.7632 30.7627 34.0753C29.8061 33.0749 28.7021 31.919 27.7177 30.8907C29.5012 29.0234 31.2769 27.1661 32.9329 25.4383L32.9369 25.4423L32.9508 25.4284C33.9911 26.5205 35.1589 27.7401 36.0038 28.6249C39.565 32.3455 44.848 33.1486 49.1665 31.0581C50.3701 30.4722 51.5041 29.6731 52.4985 28.6328C54.2522 26.7975 62.1179 18.585 69.2442 11.1418H69.2522C69.4315 10.9565 69.6109 10.7671 69.7883 10.5818V21.4646C63.75 27.7759 59.1565 32.5787 57.7336 34.0653C56.1194 35.7532 54.2801 37.0506 52.3251 38.0071C54.2801 38.9637 56.1194 40.261 57.7336 41.9489C59.1565 43.4356 63.75 48.2403 69.7883 54.5496V64.8824H69.7703V65.4424C62.5104 57.8577 54.296 49.2805 52.4985 47.3993Z" fill="#C19D5D"/>
<path d="M41.2097 23.1911C40.4664 22.4159 39.2488 21.1424 38.1447 19.9886C39.8705 18.1871 41.0284 16.9754 41.2635 16.7283C41.4787 16.5051 41.7099 16.3098 41.955 16.1444L42.3337 15.9352L42.6844 15.7419C44.2388 15.0763 46.0901 15.3991 47.3556 16.7184C48.0969 17.4956 49.3165 18.769 50.4186 19.9208C48.6868 21.7303 47.529 22.94 47.2998 23.1831C46.8793 23.6215 46.395 23.9503 45.8749 24.1696C44.3205 24.8352 42.4692 24.5103 41.2097 23.1911Z" fill="#C19D5D"/>
<path d="M1.4169 36.5864L25.7613 11.1419H25.7693L30.847 5.83502C38.2902 -1.94499 50.3568 -1.94499 57.8 5.83502C58.7585 6.83542 59.8626 7.99325 60.849 9.01956C59.0654 10.8829 57.2898 12.7382 55.6338 14.4719L55.6278 14.466L55.6159 14.4799C54.5716 13.3898 53.4058 12.1702 52.5589 11.2854L52.4174 11.1419H52.4353C47.8657 6.52055 40.58 6.5604 36.0642 11.2754C33.4875 13.9717 17.7661 30.4365 10.5401 38.0072C17.7661 45.578 33.4875 62.0447 36.0642 64.739L36.2057 64.8825H36.1878C40.7593 69.5039 48.0471 69.464 52.5589 64.747C53.4058 63.8622 54.5716 62.6446 55.6159 61.5525L55.6198 61.5565L55.6338 61.5445L58.8243 64.8825H58.8004C59.474 65.586 60.1495 66.2914 60.8311 67.0049C59.8446 68.0312 58.7406 69.187 57.7821 70.1874C50.3388 77.9694 38.2723 77.9694 30.8291 70.1874L1.4169 39.4481L0 38.0092L1.4169 36.5864Z" fill="#C19D5D"/>
<path d="M22.5022 39.6917C21.9542 39.1177 21.4201 38.5597 20.9 38.0177C21.4201 37.4716 21.9542 36.9136 22.5022 36.3417L22.5062 36.3457L22.5202 36.3317C23.0243 36.8618 23.5644 37.4238 24.1204 38.0077C23.5644 38.5896 23.0243 39.1556 22.5202 39.6817L22.5162 39.6777L22.5022 39.6917Z" fill="#C19D5D"/>
</svg>
