<svg width="85" height="73" fill="none" xmlns="http://www.w3.org/2000/svg"><path d="M1 64.014c6.614 1.47 13.411 1.47 19.657.367 6.247-1.102 11.942-3.674 16.535-7.165 2.204-1.837 4.225-3.674 5.879-6.062a46.76 46.76 0 0 0 4.409-7.165c2.388-4.96 4.041-10.472 5.144-16.35 1.286-7.533 8.45-12.493 15.799-11.024 7.349 1.47 12.492 8.451 11.023 15.8-.184 1.47-.735 2.94-1.47 4.225l-.367.551c-3.858 6.798-8.451 13.411-14.146 18.923-2.756 2.756-6.063 5.328-9.37 7.532-3.307 2.205-6.98 3.858-10.839 5.144-7.532 2.572-15.248 3.123-22.413 2.021-3.674-.551-6.981-1.47-10.288-2.572A55.85 55.85 0 0 1 1 64.014z" stroke="#C0425E" stroke-width="1.5" stroke-miterlimit="10" stroke-linecap="round" stroke-linejoin="round"/><path d="M67.137 9.634S77.977 15.33 83.855 1c0 0-4.96 7.716-2.572 13.595" stroke="#91BC74" stroke-width="1.5" stroke-miterlimit="10" stroke-linecap="round" stroke-linejoin="round"/></svg>