<svg width="83" height="77" fill="none" xmlns="http://www.w3.org/2000/svg"><path d="M47.3 52.832c.228.241 1.388 1.453 3.118 3.262-1.102 1.152-2.322 2.424-3.063 3.201a4.33 4.33 0 0 1-.692.584l-.315.173-.414.23c-1.557.667-3.408.342-4.67-.977-.235-.247-1.395-1.46-3.118-3.26 1.102-1.154 2.32-2.428 3.065-3.205a4.252 4.252 0 0 1 1.42-.986c1.555-.666 3.406-.341 4.67.978zm17.07-14.816c2.03-2.118 5.224-5.46 9.108-9.521l.006.006.012-.012c3.884 4.057 7.08 7.4 9.109 9.518-2.029 2.118-5.225 5.46-9.11 9.521l-.005-.006-.012.012c-3.884-4.057-7.079-7.4-9.107-9.518z" fill="#A94C74"/><path d="M52.498 47.399c-3.634-3.8-9.067-4.56-13.433-2.3a11.62 11.62 0 0 0-3.061 2.292c-.845.885-2.013 2.102-3.053 3.194l-.004-.006-.014.016-5.215-5.452c.984-1.028 2.088-2.186 3.045-3.185a18.903 18.903 0 0 1 5.315-3.89l.095-.051a18.983 18.983 0 0 1-5.41-3.942c-.957-1-2.06-2.157-3.045-3.185 1.783-1.867 3.559-3.724 5.215-5.452l.004.004.014-.014c1.04 1.092 2.208 2.312 3.053 3.196 3.561 3.721 8.844 4.524 13.163 2.434a11.632 11.632 0 0 0 3.331-2.426c1.754-1.835 9.62-10.048 16.746-17.49h.008c.18-.186.359-.375.536-.56v10.882c-6.038 6.311-10.631 11.114-12.054 12.6a18.998 18.998 0 0 1-5.409 3.943 19 19 0 0 1 5.409 3.941c1.422 1.487 6.016 6.292 12.054 12.601v10.333h-.018v.56C62.51 57.857 54.296 49.28 52.5 47.399z" fill="#A94C74"/><path d="M41.21 23.19c-.744-.775-1.961-2.048-3.065-3.202a2218.06 2218.06 0 0 0 3.118-3.26 4.32 4.32 0 0 1 .692-.584l.379-.21.35-.193c1.555-.665 3.406-.342 4.672.977.74.777 1.96 2.05 3.063 3.202-1.732 1.81-2.89 3.02-3.12 3.263-.42.438-.904.767-1.424.986a4.156 4.156 0 0 1-4.665-.978z" fill="#A94C74"/><path d="M1.417 36.586L25.76 11.14h.008l5.078-5.306c7.443-7.78 19.51-7.78 26.953 0 .959 1 2.063 2.158 3.049 3.184-1.784 1.863-3.56 3.719-5.215 5.452l-.006-.005-.012.013-3.057-3.194-.142-.144h.018c-4.57-4.62-11.855-4.581-16.37.134a89745.988 89745.988 0 0 0-25.525 26.732c7.226 7.57 22.947 24.037 25.524 26.732l.142.143h-.018c4.571 4.621 11.86 4.581 16.37-.136.848-.884 2.014-2.102 3.058-3.194l.004.004.014-.012 3.19 3.338H58.8c.674.703 1.35 1.409 2.031 2.122-.986 1.027-2.09 2.182-3.049 3.183-7.443 7.782-19.51 7.782-26.953 0L1.417 39.447 0 38.01l1.417-1.423z" fill="#A94C74"/><path d="M22.502 39.691a976.702 976.702 0 0 0-1.602-1.674c.52-.546 1.054-1.104 1.602-1.675l.004.003.014-.014c.504.53 1.044 1.093 1.6 1.676l-1.6 1.674-.004-.003-.014.013z" fill="#A94C74"/></svg>