<svg width="83" height="77" fill="none" xmlns="http://www.w3.org/2000/svg"><path d="M47.3 52.833c.228.241 1.388 1.453 3.118 3.262-1.102 1.152-2.322 2.424-3.063 3.2a4.33 4.33 0 0 1-.692.585l-.315.173-.414.23c-1.557.667-3.408.342-4.67-.977-.235-.247-1.395-1.461-3.118-3.26 1.102-1.154 2.32-2.428 3.065-3.205a4.252 4.252 0 0 1 1.42-.986c1.555-.666 3.406-.341 4.67.978zm17.07-14.816c2.03-2.119 5.224-5.46 9.108-9.522l.006.006.012-.012c3.884 4.057 7.08 7.4 9.109 9.518-2.029 2.118-5.225 5.46-9.11 9.521l-.005-.005-.012.011c-3.884-4.057-7.079-7.399-9.107-9.517z" fill="#C19D5D"/><path d="M52.498 47.4c-3.634-3.801-9.067-4.56-13.433-2.3a11.622 11.622 0 0 0-3.061 2.291c-.845.885-2.013 2.103-3.053 3.195l-.004-.006-.014.016c-1.656-1.73-3.432-3.587-5.215-5.453.984-1.028 2.088-2.186 3.045-3.184a18.903 18.903 0 0 1 5.315-3.89l.095-.052a18.983 18.983 0 0 1-5.41-3.942c-.957-1-2.06-2.156-3.045-3.184 1.783-1.868 3.559-3.725 5.215-5.453l.004.004.014-.014c1.04 1.092 2.208 2.312 3.053 3.197 3.561 3.72 8.844 4.524 13.163 2.433a11.63 11.63 0 0 0 3.331-2.425c1.754-1.835 9.62-10.048 16.746-17.491h.008c.18-.185.359-.375.536-.56v10.883c-6.038 6.31-10.631 11.114-12.054 12.6a18.998 18.998 0 0 1-5.409 3.942 19 19 0 0 1 5.409 3.942c1.422 1.487 6.016 6.291 12.054 12.6v10.333h-.018v.56C62.51 57.858 54.296 49.281 52.5 47.4z" fill="#C19D5D"/><path d="M41.21 23.191c-.744-.775-1.961-2.049-3.065-3.202a4605.24 4605.24 0 0 0 3.118-3.26c.216-.224.447-.42.692-.585l.379-.209.35-.193c1.555-.666 3.406-.343 4.672.976.74.778 1.96 2.051 3.063 3.203-1.732 1.81-2.89 3.019-3.12 3.262a4.27 4.27 0 0 1-1.424.987 4.156 4.156 0 0 1-4.665-.979z" fill="#C19D5D"/><path d="M1.417 36.586L25.76 11.142h.008l5.078-5.307c7.443-7.78 19.51-7.78 26.953 0 .959 1 2.063 2.158 3.049 3.185a7294.68 7294.68 0 0 0-5.215 5.452l-.006-.006-.012.014-3.057-3.195-.142-.143h.018c-4.57-4.621-11.855-4.582-16.37.133-2.578 2.697-18.299 19.161-25.525 26.732 7.226 7.571 22.947 24.038 25.524 26.732l.142.143h-.018c4.571 4.622 11.86 4.582 16.37-.135.848-.885 2.014-2.102 3.058-3.194l.004.004.014-.013 3.19 3.338H58.8l2.031 2.123c-.986 1.026-2.09 2.182-3.049 3.182-7.443 7.782-19.51 7.782-26.953 0L1.417 39.448 0 38.01l1.417-1.423z" fill="#C19D5D"/><path d="M22.502 39.692a908.153 908.153 0 0 0-1.602-1.674c.52-.546 1.054-1.104 1.602-1.676l.004.004.014-.014c.504.53 1.044 1.092 1.6 1.676l-1.6 1.674-.004-.004-.014.014z" fill="#C19D5D"/></svg>